{"title":"Big_Ten_Wrap-up_480p_20110129_TTL","uid":6138789,"size":505261901,"categoryP":"video","categoryS":"tv_shows","magnet":"?xt=urn:btih:999790f7fcd5b246fa62b977ce7e2f3a8a8d4ad1&amp;dn=Big_Ten_Wrap-up_480p_20110129_TTL&amp;tr=udp%3A%2F%2Ftracker.openbittorrent.com%3A80&amp;tr=udp%3A%2F%2Fopen.demonii.com%3A1337&amp;tr=udp%3A%2F%2Ftracker.coppersurfer.tk%3A6969&amp;tr=udp%3A%2F%2Fexodus.desync.com%3A6969","seeders":0,"leechers":1,"uploader":"thetorrentlord","files":2,"time":1296414598,"description":"Big_Ten_Wrap-up_480p_20110129_TTL.avi\nFormat                           : AVI\nFormat/Info                      : Audio Video Interleave\nFile size                        : 482 MiB\nDuration                         : 22mn 31s\nOverall bit rate                 : 2 991 Kbps\nMovie name                       : Big_Ten_Wrap-up_480p_20110129_TTL.mpg\nDirector                         : created.with.SUPER(C).v2009.bld.35\nWriting application              : SUPER(C)   \n\nVideo\nID                               : 0\nFormat                           : MPEG-4 Visual\nFormat profile                   : Simple@L3\nFormat settings, BVOP            : No\nFormat settings, QPel            : No\nFormat settings, GMC             : No warppoints\nFormat settings, Matrix          : Default (H.263)\nCodec ID                         : XVID\nCodec ID/Hint                    : XviD\nDuration                         : 22mn 31s\nBit rate                         : 2 883 Kbps\nWidth                            : 624 pixels\nHeight                           : 352 pixels\nDisplay aspect ratio             : 16:9\nFrame rate                       : 23.976 fps\nColor space                      : YUV\nChroma subsampling               : 4:2:0\nBit depth                        : 8 bits\nScan type                        : Progressive\nBits/(Pixel*Frame)               : 0.547\nStream size                      : 464 MiB (96%)\nWriting library                  : XviD 1.1.2 (UTC 2006-11-01)\n\nAudio\nID                               : 1\nFormat                           : MPEG Audio\nFormat version                   : Version 1\nFormat profile                   : Layer 3\nMode                             : Joint stereo\nMode extension                   : MS Stereo\nCodec ID                         : 55\nCodec ID/Hint                    : MP3\nDuration                         : 22mn 31s\nBit rate mode                    : Constant\nBit rate                         : 96.0 Kbps\nChannel(s)                       : 2 channels\nSampling rate                    : 48.0 KHz\nStream size                      : 15.5 MiB (3%)\nAlignment                        : Aligned on interleaves\nInterleave, duration             : 24 ms (0.58 video frame)\nInterleave, preload duration     : 24 ms\n\n","torrent":{"xt":"urn:btih:999790f7fcd5b246fa62b977ce7e2f3a8a8d4ad1","amp;dn":"Big_Ten_Wrap-up_480p_20110129_TTL","amp;tr":["udp%3A%2F%2Ftracker.openbittorrent.com%3A80","udp%3A%2F%2Fopen.demonii.com%3A1337","udp%3A%2F%2Ftracker.coppersurfer.tk%3A6969","udp%3A%2F%2Fexodus.desync.com%3A6969"],"infoHash":"999790f7fcd5b246fa62b977ce7e2f3a8a8d4ad1","infoHashBuffer":{"type":"Buffer","data":[153,151,144,247,252,213,178,70,250,98,185,119,206,126,47,58,138,141,74,209]},"announce":[],"urlList":[]}}